<svg width="27" height="26" viewBox="0 0 27 26" fill="none" xmlns="http://www.w3.org/2000/svg">
<g clip-path="url(#clip0_96_158)">
<path d="M2.90953 0C1.61663 0 0.545898 1.07073 0.545898 2.36364V23.6364C0.545898 24.9293 1.61663 26 2.90953 26H24.1823C25.4752 26 26.5459 24.9293 26.5459 23.6364V2.36364C26.5459 1.07073 25.4752 0 24.1823 0H2.90953ZM2.90953 2.36364H24.1823V23.6364H18.051V15.6591H21.1166L21.5598 12.1136H18.0522V9.82327C18.0522 8.79036 18.3051 8.08836 19.7871 8.08836H21.7075V4.875C21.3802 4.83364 20.2444 4.76391 18.9385 4.76391C16.2144 4.76391 14.359 6.40309 14.359 9.45455V12.1136H11.2567V15.6591H14.3578V23.6364H2.90953V2.36364Z" fill="white"/>
</g>
<defs>
<clipPath id="clip0_96_158">
<rect width="26" height="26" fill="white" transform="translate(0.545898)"/>
</clipPath>
</defs>
</svg>
