<svg width="34" height="34" viewBox="0 0 34 34" fill="none" xmlns="http://www.w3.org/2000/svg">
    <path fill-rule="evenodd" clip-rule="evenodd"
          d="M16.9997 0.333313C17.4417 0.333313 17.8656 0.508908 18.1782 0.821468C18.4907 1.13403 18.6663 1.55795 18.6663 1.99998V3.76998C19.8727 3.91978 21.0526 4.23497 22.173 4.70665L23.0563 3.17665C23.165 2.98557 23.3103 2.81787 23.4841 2.6832C23.6578 2.54853 23.8564 2.44955 24.0685 2.39196C24.2806 2.33437 24.5021 2.31931 24.72 2.34764C24.938 2.37597 25.1482 2.44714 25.3386 2.55704C25.5289 2.66694 25.6956 2.81341 25.8292 2.98801C25.9627 3.16262 26.0603 3.3619 26.1165 3.5744C26.1727 3.7869 26.1863 4.00841 26.1565 4.22619C26.1267 4.44396 26.0542 4.6537 25.943 4.84331L25.058 6.37665C26.0247 7.10998 26.888 7.97498 27.6247 8.94331L29.158 8.05665C29.3476 7.94548 29.5574 7.87293 29.7751 7.84315C29.9929 7.81337 30.2144 7.82697 30.4269 7.88315C30.6394 7.93933 30.8387 8.03699 31.0133 8.1705C31.1879 8.30402 31.3344 8.47075 31.4443 8.6611C31.5542 8.85145 31.6253 9.06166 31.6537 9.27963C31.682 9.49759 31.6669 9.71901 31.6094 9.93113C31.5518 10.1433 31.4528 10.3419 31.3181 10.5156C31.1835 10.6893 31.0158 10.8347 30.8247 10.9433L29.2913 11.8266C29.7563 12.9283 30.0763 14.105 30.2297 15.3333H31.9997C32.4417 15.3333 32.8656 15.5089 33.1782 15.8215C33.4907 16.134 33.6663 16.558 33.6663 17C33.6663 17.442 33.4907 17.8659 33.1782 18.1785C32.8656 18.4911 32.4417 18.6666 31.9997 18.6666H30.2297C30.0798 19.873 29.7646 21.0529 29.293 22.1733L30.823 23.0566C31.0141 23.1653 31.1818 23.3106 31.3165 23.4844C31.4511 23.6581 31.5501 23.8567 31.6077 24.0688C31.6653 24.2809 31.6803 24.5024 31.652 24.7203C31.6237 24.9383 31.5525 25.1485 31.4426 25.3389C31.3327 25.5292 31.1862 25.6959 31.0116 25.8295C30.837 25.963 30.6378 26.0606 30.4253 26.1168C30.2128 26.173 29.9912 26.1866 29.7735 26.1568C29.5557 26.127 29.346 26.0545 29.1563 25.9433L27.623 25.0583C26.8878 26.0263 26.0243 26.8897 25.0563 27.625L25.943 29.1583C26.0542 29.3479 26.1267 29.5577 26.1565 29.7754C26.1863 29.9932 26.1727 30.2147 26.1165 30.4272C26.0603 30.6397 25.9627 30.839 25.8292 31.0136C25.6956 31.1882 25.5289 31.3347 25.3386 31.4446C25.1482 31.5545 24.938 31.6257 24.72 31.654C24.5021 31.6823 24.2806 31.6673 24.0685 31.6097C23.8564 31.5521 23.6578 31.4531 23.4841 31.3184C23.3103 31.1838 23.165 31.0161 23.0563 30.825L22.173 29.2916C21.0528 29.7642 19.8728 30.0799 18.6663 30.23V32C18.6663 32.442 18.4907 32.8659 18.1782 33.1785C17.8656 33.4911 17.4417 33.6666 16.9997 33.6666C16.5576 33.6666 16.1337 33.4911 15.8212 33.1785C15.5086 32.8659 15.333 32.442 15.333 32V30.23C14.1267 30.0802 12.9467 29.765 11.8263 29.2933L10.943 30.8233C10.8344 31.0144 10.689 31.1821 10.5153 31.3168C10.3416 31.4514 10.143 31.5504 9.93083 31.608C9.71871 31.6656 9.49729 31.6807 9.27932 31.6523C9.06136 31.624 8.85115 31.5528 8.6608 31.4429C8.47044 31.333 8.30371 31.1865 8.1702 31.0119C8.03668 30.8373 7.93902 30.6381 7.88284 30.4256C7.82666 30.2131 7.81307 29.9915 7.84284 29.7738C7.87262 29.556 7.94518 29.3463 8.05634 29.1566L8.94134 27.6233C7.97341 26.888 7.10995 26.0246 6.37467 25.0566L4.84134 25.9433C4.65172 26.0545 4.44199 26.127 4.22422 26.1568C4.00644 26.1866 3.78493 26.173 3.57243 26.1168C3.35993 26.0606 3.16065 25.963 2.98604 25.8295C2.81144 25.6959 2.66497 25.5292 2.55507 25.3389C2.44517 25.1485 2.374 24.9383 2.34567 24.7203C2.31734 24.5024 2.3324 24.2809 2.38999 24.0688C2.44758 23.8567 2.54656 23.6581 2.68123 23.4844C2.8159 23.3106 2.9836 23.1653 3.17467 23.0566L4.70801 22.1733C4.2352 21.0531 3.9189 19.8731 3.76801 18.6666H1.99967C1.55765 18.6666 1.13372 18.4911 0.821163 18.1785C0.508602 17.8659 0.333008 17.442 0.333008 17C0.333008 16.558 0.508602 16.134 0.821163 15.8215C1.13372 15.5089 1.55765 15.3333 1.99967 15.3333H3.76967C3.91948 14.127 4.23466 12.947 4.70634 11.8266L3.17634 10.9433C2.79666 10.7207 2.52044 10.357 2.40795 9.93151C2.29545 9.50602 2.35582 9.0533 2.57588 8.67216C2.79594 8.29101 3.15783 8.01238 3.58257 7.89707C4.0073 7.78175 4.46041 7.83912 4.84301 8.05665L6.37634 8.94165C7.10967 7.97498 7.97467 7.11165 8.94301 6.37498L8.05634 4.84165C7.83881 4.45905 7.78145 4.00594 7.89676 3.58121C8.01207 3.15647 8.29071 2.79458 8.67185 2.57452C9.053 2.35446 9.50571 2.29409 9.93121 2.40658C10.3567 2.51908 10.7204 2.7953 10.943 3.17498L11.8263 4.70831C12.9465 4.23549 14.1265 3.91918 15.333 3.76831V1.99998C15.333 1.55795 15.5086 1.13403 15.8212 0.821468C16.1337 0.508908 16.5576 0.333313 16.9997 0.333313ZM16.9997 18.925L9.29301 23.375C10.0385 24.2728 10.934 25.0346 11.9397 25.6266L12.0613 25.6983C13.5662 26.5543 15.2684 27.003 16.9997 27C18.6163 27 20.143 26.6166 21.4947 25.935L22.0613 25.6266C23.0672 25.0348 23.9622 24.2723 24.7063 23.3733L16.9997 18.925ZM15.333 7.13831C14.3453 7.30394 13.3884 7.61805 12.4947 8.06998L12.0613 8.30331L11.9397 8.37331C10.6158 9.15211 9.48802 10.224 8.64301 11.5066L8.37301 11.94L8.30301 12.0616C7.4465 13.5664 6.99727 15.2685 6.99967 17C6.99967 18.05 7.16134 19.0666 7.46301 20.0166L7.62467 20.4883L15.333 16.0383V7.13831ZM18.6663 7.13831V16.0383L26.3747 20.4883C26.7894 19.3721 27.0011 18.1907 26.9997 17C26.9997 15.3833 26.6163 13.8566 25.9347 12.505L25.6963 12.0616L25.643 11.97L25.6263 11.94C24.8475 10.6161 23.7756 9.48837 22.493 8.64331L21.938 8.30165C21.0723 7.80905 20.1374 7.44948 19.1647 7.23498L18.6663 7.13831Z"
          fill="white"/>
</svg>
