<svg width="40" height="40" viewBox="0 0 40 40" fill="none" xmlns="http://www.w3.org/2000/svg">
<g clip-path="url(#clip0_82_313)">
<path fill-rule="evenodd" clip-rule="evenodd" d="M17.9171 4.27832C18.504 3.93935 19.1648 3.74867 19.842 3.72282C20.5193 3.69697 21.1927 3.83673 21.8037 4.12999L22.0837 4.27832L32.5738 10.3333C33.1637 10.6738 33.6612 11.1537 34.0227 11.7311C34.3841 12.3084 34.5985 12.9656 34.6471 13.645L34.6571 13.9417V26.055C34.6569 26.7359 34.4899 27.4065 34.1706 28.0079C33.8513 28.6094 33.3894 29.1234 32.8254 29.505L32.5754 29.6633L22.0837 35.72C21.4968 36.059 20.8361 36.2496 20.1588 36.2755C19.4815 36.3013 18.8081 36.1616 18.1971 35.8683L17.9171 35.7183L7.42708 29.6667C6.83713 29.3262 6.33964 28.8463 5.97818 28.2689C5.61672 27.6916 5.40232 27.0344 5.35375 26.355L5.34375 26.0583V13.9433C5.34409 13.2622 5.51138 12.5916 5.831 11.9901C6.15061 11.3887 6.61279 10.8747 7.17708 10.4933L7.42708 10.335L17.9171 4.27832ZM20.4171 7.16499C20.3119 7.10435 20.1948 7.06742 20.0739 7.05676C19.953 7.04611 19.8312 7.062 19.7171 7.10332L19.5837 7.16499L9.09375 13.2217C8.98872 13.2824 8.89821 13.3653 8.82855 13.4646C8.75888 13.5639 8.71174 13.6772 8.69042 13.7967L8.67708 13.9433V26.0567C8.67721 26.178 8.70382 26.2978 8.75506 26.4078C8.8063 26.5177 8.88094 26.6152 8.97375 26.6933L9.09375 26.7767L19.5837 32.835C19.6889 32.8956 19.806 32.9326 19.9269 32.9432C20.0478 32.9539 20.1696 32.938 20.2837 32.8967L20.4171 32.835L30.9071 26.7783C31.0124 26.7178 31.1033 26.635 31.1732 26.5356C31.2432 26.4363 31.2906 26.3229 31.3121 26.2033L31.3237 26.0567V13.9433C31.3238 13.8221 31.2975 13.7024 31.2465 13.5924C31.1956 13.4825 31.1213 13.3849 31.0287 13.3067L30.9071 13.2217L20.4171 7.16499ZM20.0004 13.3333C21.7685 13.3333 23.4642 14.0357 24.7145 15.2859C25.9647 16.5362 26.6671 18.2319 26.6671 20C26.6671 21.7681 25.9647 23.4638 24.7145 24.714C23.4642 25.9643 21.7685 26.6667 20.0004 26.6667C18.2323 26.6667 16.5366 25.9643 15.2864 24.714C14.0361 23.4638 13.3337 21.7681 13.3337 20C13.3337 18.2319 14.0361 16.5362 15.2864 15.2859C16.5366 14.0357 18.2323 13.3333 20.0004 13.3333ZM20.0004 16.6667C19.1164 16.6667 18.2685 17.0178 17.6434 17.643C17.0183 18.2681 16.6671 19.1159 16.6671 20C16.6671 20.884 17.0183 21.7319 17.6434 22.357C18.2685 22.9821 19.1164 23.3333 20.0004 23.3333C20.8845 23.3333 21.7323 22.9821 22.3574 22.357C22.9826 21.7319 23.3337 20.884 23.3337 20C23.3337 19.1159 22.9826 18.2681 22.3574 17.643C21.7323 17.0178 20.8845 16.6667 20.0004 16.6667Z" fill="white"/>
</g>
<defs>
<clipPath id="clip0_82_313">
<rect width="40" height="40" fill="white"/>
</clipPath>
</defs>
</svg>
