<svg width="31" height="24" viewBox="0 0 31 24" fill="none" xmlns="http://www.w3.org/2000/svg">
<g clip-path="url(#clip0_96_157)">
<path d="M30.5455 2.847C29.4017 3.3364 28.1884 3.65695 26.9462 3.79793C28.254 3.04098 29.2328 1.85054 29.7004 0.448144C28.4704 1.15272 27.1255 1.65022 25.7231 1.91944C24.864 1.03168 23.7484 0.41431 22.5214 0.147599C21.2944 -0.119112 20.0127 -0.0228217 18.8431 0.42395C17.6735 0.870721 16.67 1.6473 15.9631 2.65272C15.2562 3.65813 14.8786 4.84586 14.8795 6.06147C14.8795 6.53755 14.9342 6.99887 15.0449 7.4405C12.5523 7.32192 10.1135 6.69699 7.88746 5.60644C5.66142 4.5159 3.6981 2.98422 2.12545 1.11121C1.5667 2.0357 1.27362 3.0877 1.27655 4.15838C1.27655 6.2583 2.38 8.11341 4.06509 9.19966C3.06976 9.16914 2.09651 8.90844 1.22691 8.43941V8.51691C1.22605 9.91584 1.72636 11.2719 2.64283 12.3546C3.5593 13.4374 4.83537 14.18 6.25418 14.4562C5.33154 14.7008 4.36306 14.737 3.42364 14.562C3.82379 15.7655 4.60287 16.8182 5.65203 17.5729C6.7012 18.3276 7.96805 18.7467 9.27564 18.7717C7.97573 19.7579 6.48736 20.4867 4.89573 20.9162C3.3041 21.3458 1.64045 21.4678 0 21.2751C2.8643 23.0568 6.19913 24.0028 9.60527 24C21.1336 24 27.4387 14.7687 27.4387 6.76267C27.4387 6.50433 27.4285 6.23861 27.4184 5.97905C28.6434 5.12167 29.7021 4.06177 30.5455 2.84823V2.847Z" fill="white"/>
</g>
<defs>
<clipPath id="clip0_96_157">
<rect width="30.5455" height="24" fill="white"/>
</clipPath>
</defs>
</svg>
