<svg width="32" height="24" viewBox="0 0 32 24" fill="none" xmlns="http://www.w3.org/2000/svg">
<g clip-path="url(#clip0_96_159)">
<path d="M15.8186 0C11.3942 0 7.48442 0.468 5.09835 0.8256C3.12464 1.1208 1.53275 2.6388 1.16973 4.65C0.863101 6.3612 0.545898 8.8644 0.545898 12C0.545898 15.1356 0.863101 17.64 1.16973 19.35C1.53275 21.3612 3.12464 22.884 5.09835 23.1756C7.49499 23.5308 11.4177 24 15.8186 24C20.2195 24 24.1434 23.532 26.5389 23.1744C28.5126 22.884 30.1045 21.3612 30.4675 19.35C30.7742 17.634 31.0914 15.126 31.0914 12C31.0914 8.874 30.7789 6.366 30.4675 4.65C30.1045 2.6388 28.5126 1.1208 26.5389 0.8244C24.1528 0.4692 20.2418 0 15.8186 0ZM15.8186 2.4C20.0868 2.4 23.9002 2.8452 26.2088 3.1872C26.6885 3.25725 27.1346 3.47965 27.4837 3.82294C27.8329 4.16623 28.0675 4.613 28.1543 5.1C28.4386 6.684 28.7417 9.0324 28.7417 12C28.7417 14.9628 28.4386 17.316 28.1543 18.9C28.069 19.3877 27.8349 19.8353 27.4854 20.1789C27.136 20.5224 26.6891 20.7443 26.2088 20.8128C23.8897 21.1548 20.0586 21.6 15.8186 21.6C11.5775 21.6 7.7417 21.1548 5.42847 20.8128C4.94845 20.7435 4.50206 20.5213 4.15278 20.1779C3.8035 19.8345 3.56911 19.3873 3.48296 18.9C3.19865 17.316 2.89555 14.9724 2.89555 12C2.89555 9.024 3.19865 6.684 3.48296 5.1C3.56911 4.6127 3.8035 4.16554 4.15278 3.82213C4.50206 3.47873 4.94845 3.25655 5.42847 3.1872C7.7323 2.8452 11.5505 2.4 15.8186 2.4ZM12.2942 5.1372V18.864L14.0564 17.8512L22.2802 13.0512L24.0424 12L22.2802 10.95L14.0564 6.15L12.2942 5.1372ZM14.6438 9.2628L19.3067 12L14.6438 14.7372V9.2628Z" fill="white"/>
</g>
<defs>
<clipPath id="clip0_96_159">
<rect width="30.5455" height="24" fill="white" transform="translate(0.545898)"/>
</clipPath>
</defs>
</svg>
